<svg width="172" height="38" viewBox="0 0 172 38" fill="none" xmlns="http://www.w3.org/2000/svg">
<g clip-path="url(#clip0_9759_1686)">
<g clip-path="url(#clip1_9759_1686)">
<path d="M-0.309303 28.5097L16.3675 38.0162L-0.309303 9.49365L-0.309303 28.5097Z" fill="url(#paint0_linear_9759_1686)"/>
<path d="M16.3675 -0.0161133L-0.309303 9.49346L33.0412 9.49346L16.3675 -0.0161133Z" fill="url(#paint1_linear_9759_1686)"/>
<path d="M16.3632 38.0162L33.0369 28.5097V9.49365L16.3632 38.0162Z" fill="url(#paint2_linear_9759_1686)"/>
<path d="M-0.309303 9.49365L16.3675 38.0162L33.0412 9.49365L-0.309303 9.49365Z" fill="url(#paint3_linear_9759_1686)"/>
<path d="M25.6508 15.8056H23.3564L23.1097 15.1219L22.7145 14.0472C22.5743 13.7046 22.4327 13.3636 22.1875 13.0589C21.4138 11.8705 20.1397 11.1489 18.7241 11.1489H13.848C12.4422 11.1489 11.1668 11.872 10.3945 13.0589C10.1394 13.3636 9.99926 13.7046 9.8577 14.0472L9.22559 15.8056H6.93119C6.60602 15.8056 6.39438 16.0723 6.46586 16.424L6.6761 17.4123C6.74618 17.6397 6.93119 17.7928 7.14143 17.7928H7.9151C7.38811 18.2491 7.07135 18.9812 7.07135 19.7801V21.7673C7.07135 22.4616 7.31803 23.0694 7.66842 23.5257L7.66842 25.7782C7.66842 25.8115 7.66842 25.8449 7.67263 25.8767C7.71468 26.4361 8.17159 26.8514 8.69018 26.8514H10.3553C10.8739 26.8514 11.3308 26.4346 11.3728 25.8767C11.3756 25.8434 11.377 25.8115 11.377 25.7782L11.377 24.4473H21.1951V25.7782C21.1951 25.8131 21.1965 25.8479 21.1993 25.8813C21.2442 26.4376 21.6997 26.8514 22.2169 26.8514L23.882 26.8514C24.4006 26.8514 24.8575 26.4346 24.8995 25.8767C24.9023 25.8434 24.9037 25.8115 24.9037 25.7782V23.5257C25.2639 23.0694 25.5106 22.4616 25.5106 21.7673V19.7801C25.5106 18.9812 25.1939 18.2491 24.6585 17.7928H25.4405C25.6508 17.7928 25.8274 17.6412 25.8975 17.4123L26.1091 16.424C26.1792 16.0723 25.9689 15.8056 25.6522 15.8056H25.6508ZM10.1394 21.7643C10.0343 21.7643 9.96422 21.7643 9.8577 21.6885C9.29567 21.6127 8.90883 21.1185 8.90883 20.4334C8.90883 19.7482 9.29567 19.2829 9.8577 19.1692C9.96282 19.1313 10.0329 19.1313 10.1394 19.1313C10.8865 19.1313 11.9769 20.3197 11.9769 21.1185C11.9769 21.9174 10.8865 21.7643 10.1394 21.7643ZM23.1111 21.5369C22.9261 21.6885 22.6808 21.7643 22.4341 21.7643C21.6955 21.7643 20.5967 21.878 20.5967 21.1185C20.5967 20.3197 21.6955 19.1313 22.4341 19.1313C22.6808 19.1313 22.9261 19.2071 23.1111 19.3208C23.4629 19.5102 23.6731 19.8907 23.6731 20.4334C23.6731 20.976 23.4629 21.3459 23.1111 21.5354V21.5369Z" fill="white"/>
</g>
<path d="M47.4682 28.6386H40.4428V8.86315H47.5263C49.5197 8.86315 51.2358 9.25904 52.6744 10.0508C54.113 10.8362 55.2194 11.9659 55.9936 13.4401C56.7742 14.9142 57.1645 16.6781 57.1645 18.7316C57.1645 20.7915 56.7742 22.5618 55.9936 24.0423C55.2194 25.5229 54.1066 26.6591 52.6551 27.4509C51.21 28.2427 49.481 28.6386 47.4682 28.6386ZM44.6329 25.0562H47.2941C48.5327 25.0562 49.5746 24.8374 50.4197 24.3996C51.2713 23.9554 51.9099 23.2699 52.3357 22.3429C52.768 21.4095 52.9841 20.2057 52.9841 18.7316C52.9841 17.2703 52.768 16.0762 52.3357 15.1492C51.9099 14.2222 51.2745 13.5399 50.4294 13.1021C49.5843 12.6644 48.5424 12.4455 47.3037 12.4455H44.6329V25.0562Z" fill="#006156"/>
<path d="M59.4579 28.6386V13.807H63.4545V16.3948H63.6093C63.8802 15.4743 64.3351 14.779 64.9737 14.3091C65.6124 13.8328 66.3479 13.5946 67.1801 13.5946C67.3865 13.5946 67.6091 13.6075 67.8478 13.6332C68.0865 13.6589 68.2961 13.6944 68.4768 13.7394V17.3894C68.2832 17.3314 68.0155 17.2799 67.6736 17.2349C67.3317 17.1898 67.0188 17.1673 66.7349 17.1673C66.1285 17.1673 65.5866 17.2993 65.1092 17.5632C64.6383 17.8207 64.2641 18.1812 63.9867 18.6447C63.7157 19.1081 63.5803 19.6424 63.5803 20.2475V28.6386H59.4579Z" fill="#006156"/>
<path d="M70.5774 28.6386V13.807H74.6998V28.6386H70.5774ZM72.6483 11.8951C72.0354 11.8951 71.5096 11.6923 71.071 11.2868C70.6387 10.8748 70.4226 10.3824 70.4226 9.80943C70.4226 9.24295 70.6387 8.75693 71.071 8.35138C71.5096 7.93939 72.0354 7.7334 72.6483 7.7334C73.2612 7.7334 73.7837 7.93939 74.2159 8.35138C74.6546 8.75693 74.874 9.24295 74.874 9.80943C74.874 10.3824 74.6546 10.8748 74.2159 11.2868C73.7837 11.6923 73.2612 11.8951 72.6483 11.8951Z" fill="#006156"/>
<path d="M90.4968 13.807L85.3004 28.6386H80.6554L75.4589 13.807H79.8135L82.9005 24.4189H83.0553L86.1326 13.807H90.4968Z" fill="#006156"/>
<path d="M98.3256 28.9283C96.7966 28.9283 95.4805 28.6193 94.3774 28.0013C93.2807 27.3769 92.4355 26.495 91.842 25.3556C91.2485 24.2097 90.9518 22.8547 90.9518 21.2904C90.9518 19.7647 91.2485 18.4258 91.842 17.2735C92.4355 16.1212 93.271 15.2232 94.3483 14.5795C95.4322 13.9358 96.7031 13.6139 98.161 13.6139C99.1416 13.6139 100.054 13.7716 100.9 14.087C101.751 14.396 102.493 14.8627 103.125 15.4871C103.764 16.1116 104.261 16.8969 104.616 17.8432C104.97 18.7831 105.148 19.8838 105.148 21.1455V22.2753H95.0265V19.7261H101.267C101.267 19.1339 101.138 18.6092 100.88 18.1522C100.622 17.6951 100.264 17.3379 99.8061 17.0804C99.3545 16.8165 98.8288 16.6845 98.2288 16.6845C97.603 16.6845 97.0482 16.8293 96.5644 17.119C96.087 17.4022 95.7128 17.7853 95.4418 18.2681C95.1709 18.7444 95.0322 19.2755 95.0257 19.8613V22.285C95.0257 23.0188 95.1612 23.6529 95.4322 24.1872C95.7096 24.7215 96.0999 25.1335 96.6031 25.4231C97.1063 25.7128 97.703 25.8577 98.3933 25.8577C98.8513 25.8577 99.2707 25.7933 99.6513 25.6645C100.032 25.5358 100.358 25.3427 100.629 25.0852C100.9 24.8277 101.106 24.5123 101.248 24.1389L105.061 24.39C104.867 25.3041 104.47 26.1023 103.87 26.7846C103.277 27.4606 102.509 27.9884 101.567 28.3682C100.632 28.7416 99.5513 28.9283 98.3256 28.9283Z" fill="#006156"/>
<path d="M107.529 8.86315H110.394L117.129 25.2783H117.361L124.096 8.86315H126.96V28.6386H124.715V13.6139H124.522L118.329 28.6386H116.161L109.968 13.6139H109.774V28.6386H107.529V8.86315Z" fill="#00A08D"/>
<path d="M136.138 28.9476C134.797 28.9476 133.619 28.6289 132.606 27.9916C131.6 27.3543 130.813 26.4628 130.245 25.3169C129.684 24.1711 129.403 22.8321 129.403 21.3C129.403 19.7551 129.684 18.4065 130.245 17.2542C130.813 16.1019 131.6 15.2071 132.606 14.5698C133.619 13.9325 134.797 13.6139 136.138 13.6139C137.48 13.6139 138.654 13.9325 139.661 14.5698C140.674 15.2071 141.461 16.1019 142.022 17.2542C142.59 18.4065 142.874 19.7551 142.874 21.3C142.874 22.8321 142.59 24.1711 142.022 25.3169C141.461 26.4628 140.674 27.3543 139.661 27.9916C138.654 28.6289 137.48 28.9476 136.138 28.9476ZM136.138 26.9005C137.158 26.9005 137.996 26.6398 138.654 26.1184C139.312 25.597 139.8 24.9114 140.116 24.0617C140.432 23.2119 140.59 22.2914 140.59 21.3C140.59 20.3087 140.432 19.3849 140.116 18.5288C139.8 17.6726 139.312 16.9806 138.654 16.4527C137.996 15.9249 137.158 15.661 136.138 15.661C135.119 15.661 134.28 15.9249 133.622 16.4527C132.964 16.9806 132.477 17.6726 132.161 18.5288C131.845 19.3849 131.687 20.3087 131.687 21.3C131.687 22.2914 131.845 23.2119 132.161 24.0617C132.477 24.9114 132.964 25.597 133.622 26.1184C134.28 26.6398 135.119 26.9005 136.138 26.9005Z" fill="#00A08D"/>
<path d="M147.281 19.7165V28.6386H144.997V13.807H147.203V16.1244H147.397C147.745 15.3713 148.274 14.7662 148.984 14.3091C149.694 13.8456 150.61 13.6139 151.732 13.6139C152.739 13.6139 153.619 13.8199 154.374 14.2319C155.129 14.6374 155.716 15.2554 156.135 16.0858C156.555 16.9098 156.764 17.9526 156.764 19.2144V28.6386H154.48V19.3688C154.48 18.2037 154.177 17.296 153.571 16.6459C152.964 15.9893 152.132 15.661 151.074 15.661C150.345 15.661 149.694 15.8187 149.119 16.1341C148.552 16.4495 148.103 16.9098 147.774 17.5149C147.445 18.12 147.281 18.8539 147.281 19.7165Z" fill="#00A08D"/>
<path d="M165.188 28.9476C163.949 28.9476 162.855 28.6354 161.907 28.0109C160.959 27.3801 160.217 26.4917 159.681 25.3459C159.146 24.1936 158.878 22.8321 158.878 21.2614C158.878 19.7036 159.146 18.3518 159.681 17.2059C160.217 16.0601 160.962 15.1749 161.917 14.5505C162.872 13.9261 163.975 13.6139 165.226 13.6139C166.194 13.6139 166.958 13.7748 167.52 14.0967C168.087 14.4121 168.52 14.7726 168.816 15.1782C169.12 15.5773 169.355 15.9056 169.523 16.1631H169.716V8.86315H172V28.6386H169.794V26.3598H169.523C169.355 26.6301 169.116 26.9713 168.807 27.3833C168.497 27.7889 168.055 28.1526 167.481 28.4744C166.907 28.7899 166.142 28.9476 165.188 28.9476ZM165.497 26.9005C166.413 26.9005 167.187 26.6623 167.82 26.186C168.452 25.7032 168.932 25.0369 169.261 24.1872C169.59 23.331 169.755 22.3429 169.755 21.2228C169.755 20.1156 169.594 19.1468 169.271 18.3163C168.949 17.4795 168.471 16.8293 167.839 16.3658C167.207 15.8959 166.426 15.661 165.497 15.661C164.529 15.661 163.723 15.9088 163.078 16.4045C162.439 16.8937 161.959 17.56 161.636 18.4033C161.32 19.2401 161.162 20.18 161.162 21.2228C161.162 22.2785 161.323 23.2377 161.646 24.1003C161.975 24.9564 162.459 25.6388 163.097 26.1473C163.742 26.6495 164.542 26.9005 165.497 26.9005Z" fill="#00A08D"/>
</g>
<defs>
<linearGradient id="paint0_linear_9759_1686" x1="8.02911" y1="38.0162" x2="8.02911" y2="9.49365" gradientUnits="userSpaceOnUse">
<stop stop-color="#00A08D"/>
<stop offset="1" stop-color="#01C1AB"/>
</linearGradient>
<linearGradient id="paint1_linear_9759_1686" x1="16.366" y1="9.49346" x2="16.366" y2="-0.0161134" gradientUnits="userSpaceOnUse">
<stop stop-color="#01C1AB"/>
<stop offset="1" stop-color="#00A08D"/>
</linearGradient>
<linearGradient id="paint2_linear_9759_1686" x1="24.7" y1="38.0162" x2="24.7" y2="9.49365" gradientUnits="userSpaceOnUse">
<stop stop-color="#00A08D"/>
<stop offset="1" stop-color="#01C1AB"/>
</linearGradient>
<linearGradient id="paint3_linear_9759_1686" x1="16.366" y1="38.0162" x2="16.366" y2="9.49365" gradientUnits="userSpaceOnUse">
<stop stop-color="#01C1AB"/>
<stop offset="1" stop-color="#00A08D"/>
</linearGradient>
<clipPath id="clip0_9759_1686">
<rect width="172" height="38" fill="white"/>
</clipPath>
<clipPath id="clip1_9759_1686">
<rect width="33.0467" height="38" fill="white"/>
</clipPath>
</defs>
</svg>
